<?xml version="1.0" encoding="iso-8859-1"?>
<!-- Generator: Adobe Illustrator 16.0.0, SVG Export Plug-In . SVG Version: 6.00 Build 0)  -->
<!DOCTYPE svg PUBLIC "-//W3C//DTD SVG 1.1//EN" "http://www.w3.org/Graphics/SVG/1.1/DTD/svg11.dtd">
<svg version="1.1" id="Capa_1" xmlns="http://www.w3.org/2000/svg" xmlns:xlink="http://www.w3.org/1999/xlink" x="0px" y="0px"
	 width="169.912px" height="169.912px" viewBox="0 0 169.912 169.912" style="enable-background:new 0 0 169.912 169.912;"
	 xml:space="preserve">
<g>
	<path fill="#021E58" d="M112.752,27.797c-10.09,0-19.564,2.649-27.797,7.258c-8.235-4.609-17.707-7.258-27.797-7.258
		C25.644,27.797,0,53.435,0,84.956c0,31.523,25.638,57.159,57.159,57.159c10.09,0,19.562-2.649,27.797-7.259
		c8.232,4.609,17.707,7.259,27.797,7.259c31.523,0,57.159-25.636,57.159-57.159C169.912,53.435,144.276,27.797,112.752,27.797z
		 M57.159,132.762c-26.363,0-47.806-21.435-47.806-47.807c0-26.363,21.443-47.806,47.806-47.806c6.753,0,13.168,1.428,18.992,3.958
		C63.607,51.602,55.6,67.358,55.6,84.956s8.007,33.362,20.551,43.848C70.32,131.336,63.906,132.762,57.159,132.762z M104.958,84.956
		c0,15.984-7.922,30.135-20.003,38.818c-12.09-8.689-20.003-22.822-20.003-38.818c0-15.987,7.919-30.135,20.003-38.815
		C97.048,54.821,104.958,68.968,104.958,84.956z M112.752,132.762c-6.753,0-13.158-1.426-18.992-3.959
		c12.544-10.497,20.552-26.244,20.552-43.848s-8.008-33.359-20.552-43.848c5.834-2.53,12.239-3.958,18.992-3.958
		c26.36,0,47.807,21.443,47.807,47.806C160.559,111.328,139.113,132.762,112.752,132.762z"/>
</g>
<g>
</g>
<g>
</g>
<g>
</g>
<g>
</g>
<g>
</g>
<g>
</g>
<g>
</g>
<g>
</g>
<g>
</g>
<g>
</g>
<g>
</g>
<g>
</g>
<g>
</g>
<g>
</g>
<g>
</g>
</svg>
