<svg width="455" height="191" viewBox="0 0 455 191" fill="none" xmlns="http://www.w3.org/2000/svg">
<g clip-path="url(#clip0)">
<g filter="url(#filter0_d)">
<path d="M0 96.1715L15.8605 110.179L40.2176 96.1715L71.3721 110.179L96.2957 82.1642L114.422 120.5L142.744 70L172.5 144.5" stroke="#FF1D58" stroke-width="20" stroke-linejoin="round"/>
</g>
<path d="M244.75 124.15C244.95 124.583 245.05 125.017 245.05 125.45C245.05 126.217 244.733 126.867 244.1 127.4C243.5 127.933 242.8 128.2 242 128.2C241.467 128.2 240.967 128.067 240.5 127.8C240.033 127.5 239.667 127.05 239.4 126.45L236.4 119.75H218.8L215.8 126.45C215.533 127.05 215.167 127.5 214.7 127.8C214.233 128.067 213.717 128.2 213.15 128.2C212.383 128.2 211.683 127.933 211.05 127.4C210.417 126.867 210.1 126.217 210.1 125.45C210.1 125.017 210.2 124.583 210.4 124.15L224.2 94.5C224.5 93.8333 224.95 93.3333 225.55 93C226.183 92.6333 226.85 92.45 227.55 92.45C228.25 92.45 228.9 92.6333 229.5 93C230.133 93.3333 230.6 93.8333 230.9 94.5L244.75 124.15ZM221 114.75H234.2L227.6 99.9L221 114.75ZM253.109 128.3C252.143 128.3 251.359 128 250.759 127.4C250.193 126.8 249.909 126.017 249.909 125.05V95.7C249.909 94.7333 250.193 93.9667 250.759 93.4C251.359 92.8 252.143 92.5 253.109 92.5C254.109 92.5 254.893 92.8 255.459 93.4C256.059 93.9667 256.359 94.7333 256.359 95.7V125.05C256.359 126.017 256.059 126.8 255.459 127.4C254.893 128 254.109 128.3 253.109 128.3ZM292.172 123.95C292.572 124.55 292.772 125.133 292.772 125.7C292.772 126.467 292.455 127.1 291.822 127.6C291.222 128.1 290.505 128.35 289.672 128.35C289.139 128.35 288.622 128.233 288.122 128C287.655 127.733 287.255 127.35 286.922 126.85L280.272 116.75C279.605 115.683 278.889 114.933 278.122 114.5C277.389 114.067 276.422 113.85 275.222 113.85H270.322V125.05C270.322 126.05 270.039 126.85 269.472 127.45C268.905 128.017 268.139 128.3 267.172 128.3C266.205 128.3 265.422 128.017 264.822 127.45C264.255 126.85 263.972 126.05 263.972 125.05V95.8C263.972 94.8333 264.239 94.0833 264.772 93.55C265.339 93.0167 266.105 92.75 267.072 92.75H279.572C283.572 92.75 286.605 93.65 288.672 95.45C290.772 97.2167 291.822 99.7833 291.822 103.15C291.822 105.883 291.039 108.133 289.472 109.9C287.939 111.633 285.755 112.75 282.922 113.25C283.889 113.483 284.739 113.9 285.472 114.5C286.205 115.1 286.922 115.933 287.622 117L292.172 123.95ZM278.672 108.9C281.105 108.9 282.889 108.45 284.022 107.55C285.155 106.617 285.722 105.2 285.722 103.3C285.722 101.367 285.155 99.9667 284.022 99.1C282.889 98.2 281.105 97.75 278.672 97.75H270.272V108.9H278.672ZM312.488 102.95C318.221 102.95 321.088 106.3 321.088 113V125.3C321.088 126.233 320.804 126.967 320.238 127.5C319.704 128.033 318.954 128.3 317.988 128.3C317.021 128.3 316.254 128.033 315.688 127.5C315.121 126.967 314.838 126.233 314.838 125.3V113C314.838 111.233 314.471 109.95 313.738 109.15C313.038 108.317 311.921 107.9 310.388 107.9C308.588 107.9 307.138 108.467 306.038 109.6C304.971 110.733 304.438 112.25 304.438 114.15V125.3C304.438 126.233 304.154 126.967 303.588 127.5C303.021 128.033 302.254 128.3 301.288 128.3C300.321 128.3 299.554 128.033 298.988 127.5C298.454 126.967 298.188 126.233 298.188 125.3V95.4C298.188 94.5333 298.471 93.8333 299.038 93.3C299.638 92.7667 300.404 92.5 301.338 92.5C302.271 92.5 303.021 92.75 303.588 93.25C304.154 93.75 304.438 94.4333 304.438 95.3V106.95C305.271 105.65 306.371 104.667 307.738 104C309.138 103.3 310.721 102.95 312.488 102.95ZM330.536 128.3C329.636 128.3 328.886 128.05 328.286 127.55C327.719 127.017 327.436 126.267 327.436 125.3V106C327.436 105.033 327.719 104.3 328.286 103.8C328.886 103.3 329.636 103.05 330.536 103.05C331.436 103.05 332.186 103.3 332.786 103.8C333.386 104.3 333.686 105.033 333.686 106V125.3C333.686 126.267 333.386 127.017 332.786 127.55C332.186 128.05 331.436 128.3 330.536 128.3ZM330.536 98.6C329.402 98.6 328.502 98.3 327.836 97.7C327.169 97.0667 326.836 96.25 326.836 95.25C326.836 94.25 327.169 93.45 327.836 92.85C328.502 92.25 329.402 91.95 330.536 91.95C331.636 91.95 332.519 92.25 333.186 92.85C333.886 93.45 334.236 94.25 334.236 95.25C334.236 96.25 333.902 97.0667 333.236 97.7C332.569 98.3 331.669 98.6 330.536 98.6ZM353.905 123.65C355.572 123.75 356.405 124.5 356.405 125.9C356.405 126.7 356.072 127.317 355.405 127.75C354.772 128.15 353.855 128.317 352.655 128.25L351.305 128.15C345.705 127.75 342.905 124.75 342.905 119.15V108.25H340.405C339.505 108.25 338.805 108.05 338.305 107.65C337.838 107.25 337.605 106.667 337.605 105.9C337.605 105.133 337.838 104.55 338.305 104.15C338.805 103.75 339.505 103.55 340.405 103.55H342.905V98.95C342.905 98.05 343.188 97.3333 343.755 96.8C344.322 96.2667 345.088 96 346.055 96C346.988 96 347.738 96.2667 348.305 96.8C348.872 97.3333 349.155 98.05 349.155 98.95V103.55H353.405C354.305 103.55 354.988 103.75 355.455 104.15C355.955 104.55 356.205 105.133 356.205 105.9C356.205 106.667 355.955 107.25 355.455 107.65C354.988 108.05 354.305 108.25 353.405 108.25H349.155V119.6C349.155 122.067 350.288 123.383 352.555 123.55L353.905 123.65ZM379.012 121.3C379.579 121.3 380.029 121.517 380.362 121.95C380.729 122.383 380.912 122.967 380.912 123.7C380.912 124.733 380.295 125.6 379.062 126.3C377.929 126.933 376.645 127.45 375.212 127.85C373.779 128.217 372.412 128.4 371.112 128.4C367.179 128.4 364.062 127.267 361.762 125C359.462 122.733 358.312 119.633 358.312 115.7C358.312 113.2 358.812 110.983 359.812 109.05C360.812 107.117 362.212 105.617 364.012 104.55C365.845 103.483 367.912 102.95 370.212 102.95C372.412 102.95 374.329 103.433 375.962 104.4C377.595 105.367 378.862 106.733 379.762 108.5C380.662 110.267 381.112 112.35 381.112 114.75C381.112 116.183 380.479 116.9 379.212 116.9H364.462C364.662 119.2 365.312 120.9 366.412 122C367.512 123.067 369.112 123.6 371.212 123.6C372.279 123.6 373.212 123.467 374.012 123.2C374.845 122.933 375.779 122.567 376.812 122.1C377.812 121.567 378.545 121.3 379.012 121.3ZM370.362 107.35C368.662 107.35 367.295 107.883 366.262 108.95C365.262 110.017 364.662 111.55 364.462 113.55H375.762C375.695 111.517 375.195 109.983 374.262 108.95C373.329 107.883 372.029 107.35 370.362 107.35ZM397.075 128.4C394.641 128.4 392.491 127.883 390.625 126.85C388.791 125.817 387.375 124.35 386.375 122.45C385.375 120.55 384.875 118.333 384.875 115.8C384.875 113.267 385.391 111.033 386.425 109.1C387.491 107.133 388.975 105.617 390.875 104.55C392.775 103.483 394.958 102.95 397.425 102.95C398.725 102.95 400.025 103.133 401.325 103.5C402.658 103.867 403.825 104.367 404.825 105C405.891 105.7 406.425 106.583 406.425 107.65C406.425 108.383 406.241 108.983 405.875 109.45C405.541 109.883 405.091 110.1 404.525 110.1C404.158 110.1 403.775 110.017 403.375 109.85C402.975 109.683 402.575 109.483 402.175 109.25C401.441 108.817 400.741 108.483 400.075 108.25C399.408 107.983 398.641 107.85 397.775 107.85C395.708 107.85 394.108 108.533 392.975 109.9C391.875 111.233 391.325 113.167 391.325 115.7C391.325 118.2 391.875 120.133 392.975 121.5C394.108 122.833 395.708 123.5 397.775 123.5C398.608 123.5 399.341 123.383 399.975 123.15C400.641 122.883 401.375 122.533 402.175 122.1C402.675 121.8 403.108 121.583 403.475 121.45C403.841 121.283 404.208 121.2 404.575 121.2C405.108 121.2 405.558 121.433 405.925 121.9C406.291 122.367 406.475 122.95 406.475 123.65C406.475 124.217 406.341 124.717 406.075 125.15C405.841 125.55 405.441 125.917 404.875 126.25C403.841 126.917 402.641 127.45 401.275 127.85C399.908 128.217 398.508 128.4 397.075 128.4ZM423.485 123.65C425.152 123.75 425.985 124.5 425.985 125.9C425.985 126.7 425.652 127.317 424.985 127.75C424.352 128.15 423.435 128.317 422.235 128.25L420.885 128.15C415.285 127.75 412.485 124.75 412.485 119.15V108.25H409.985C409.085 108.25 408.385 108.05 407.885 107.65C407.418 107.25 407.185 106.667 407.185 105.9C407.185 105.133 407.418 104.55 407.885 104.15C408.385 103.75 409.085 103.55 409.985 103.55H412.485V98.95C412.485 98.05 412.768 97.3333 413.335 96.8C413.902 96.2667 414.668 96 415.635 96C416.568 96 417.318 96.2667 417.885 96.8C418.452 97.3333 418.735 98.05 418.735 98.95V103.55H422.985C423.885 103.55 424.568 103.75 425.035 104.15C425.535 104.55 425.785 105.133 425.785 105.9C425.785 106.667 425.535 107.25 425.035 107.65C424.568 108.05 423.885 108.25 422.985 108.25H418.735V119.6C418.735 122.067 419.868 123.383 422.135 123.55L423.485 123.65Z" fill="#FF1D58"/>
</g>
<defs>
<filter id="filter0_d" x="-10.6196" y="59.9999" width="196.406" height="96.2093" filterUnits="userSpaceOnUse" color-interpolation-filters="sRGB">
<feFlood flood-opacity="0" result="BackgroundImageFix"/>
<feColorMatrix in="SourceAlpha" type="matrix" values="0 0 0 0 0 0 0 0 0 0 0 0 0 0 0 0 0 0 127 0"/>
<feOffset dy="4"/>
<feGaussianBlur stdDeviation="2"/>
<feColorMatrix type="matrix" values="0 0 0 0 0 0 0 0 0 0 0 0 0 0 0 0 0 0 0.25 0"/>
<feBlend mode="normal" in2="BackgroundImageFix" result="effect1_dropShadow"/>
<feBlend mode="normal" in="SourceGraphic" in2="effect1_dropShadow" result="shape"/>
</filter>
<clipPath id="clip0">
<rect width="455" height="191" fill="white"/>
</clipPath>
</defs>
</svg>
